<mxfile host="app.diagrams.net" modified="2023-05-14T13:16:31.609Z" agent="Mozilla/5.0 (Windows NT 10.0; Win64; x64) AppleWebKit/537.36 (KHTML, like Gecko) Chrome/113.0.0.0 Safari/537.36 Edg/113.0.1774.42" etag="2a1PzlWGZVVsLlgO7Wxk" version="21.3.0" type="device">
  <diagram id="R2lEEEUBdFMjLlhIrx00" name="Page-1">
    <mxGraphModel dx="3270" dy="1760" grid="1" gridSize="10" guides="1" tooltips="1" connect="1" arrows="1" fold="1" page="0" pageScale="1" pageWidth="850" pageHeight="1100" math="0" shadow="0" extFonts="Permanent Marker^https://fonts.googleapis.com/css?family=Permanent+Marker">
      <root>
        <mxCell id="0" />
        <mxCell id="1" parent="0" />
        <mxCell id="_7YUsY37ZqRuh6ZpaFpD-2" value="STUDENT" style="rounded=0;whiteSpace=wrap;html=1;" parent="1" vertex="1">
          <mxGeometry x="-530" y="-130" width="120" height="60" as="geometry" />
        </mxCell>
        <mxCell id="_7YUsY37ZqRuh6ZpaFpD-3" value="Ski" style="rounded=0;whiteSpace=wrap;html=1;" parent="1" vertex="1">
          <mxGeometry x="180" y="-205" width="120" height="60" as="geometry" />
        </mxCell>
        <mxCell id="_7YUsY37ZqRuh6ZpaFpD-4" value="COURSE" style="rounded=0;whiteSpace=wrap;html=1;" parent="1" vertex="1">
          <mxGeometry x="-510" y="165" width="120" height="60" as="geometry" />
        </mxCell>
        <mxCell id="_7YUsY37ZqRuh6ZpaFpD-5" value="AREA" style="rounded=0;whiteSpace=wrap;html=1;" parent="1" vertex="1">
          <mxGeometry x="-510" y="470" width="120" height="60" as="geometry" />
        </mxCell>
        <mxCell id="_7YUsY37ZqRuh6ZpaFpD-7" value="EMPLOYEE" style="rounded=0;whiteSpace=wrap;html=1;" parent="1" vertex="1">
          <mxGeometry x="130" y="230" width="120" height="60" as="geometry" />
        </mxCell>
        <mxCell id="_7YUsY37ZqRuh6ZpaFpD-8" value="ACCOMODATION" style="rounded=0;whiteSpace=wrap;html=1;" parent="1" vertex="1">
          <mxGeometry x="-60" y="-420" width="120" height="60" as="geometry" />
        </mxCell>
        <mxCell id="_7YUsY37ZqRuh6ZpaFpD-13" value="Address" style="ellipse;shape=doubleEllipse;margin=3;whiteSpace=wrap;html=1;align=center;" parent="1" vertex="1">
          <mxGeometry x="-400" y="-200" width="100" height="40" as="geometry" />
        </mxCell>
        <mxCell id="_7YUsY37ZqRuh6ZpaFpD-14" value="Student_id" style="ellipse;whiteSpace=wrap;html=1;align=center;fontStyle=4;" parent="1" vertex="1">
          <mxGeometry x="-620" y="-200" width="100" height="40" as="geometry" />
        </mxCell>
        <mxCell id="_7YUsY37ZqRuh6ZpaFpD-15" value="Street" style="ellipse;whiteSpace=wrap;html=1;" parent="1" vertex="1">
          <mxGeometry x="-470" y="-280" width="100" height="40" as="geometry" />
        </mxCell>
        <mxCell id="_7YUsY37ZqRuh6ZpaFpD-16" value="House_num" style="ellipse;whiteSpace=wrap;html=1;" parent="1" vertex="1">
          <mxGeometry x="-360" y="-280" width="100" height="40" as="geometry" />
        </mxCell>
        <mxCell id="_7YUsY37ZqRuh6ZpaFpD-17" value="Post_code" style="ellipse;whiteSpace=wrap;html=1;" parent="1" vertex="1">
          <mxGeometry x="-250" y="-270" width="100" height="40" as="geometry" />
        </mxCell>
        <mxCell id="_7YUsY37ZqRuh6ZpaFpD-18" value="" style="endArrow=none;html=1;rounded=0;entryX=0.5;entryY=0;entryDx=0;entryDy=0;exitX=0.5;exitY=1;exitDx=0;exitDy=0;" parent="1" source="_7YUsY37ZqRuh6ZpaFpD-16" target="_7YUsY37ZqRuh6ZpaFpD-13" edge="1">
          <mxGeometry relative="1" as="geometry">
            <mxPoint x="-270" y="-170" as="sourcePoint" />
            <mxPoint x="-110" y="-170" as="targetPoint" />
          </mxGeometry>
        </mxCell>
        <mxCell id="_7YUsY37ZqRuh6ZpaFpD-19" value="" style="endArrow=none;html=1;rounded=0;exitX=0.5;exitY=0;exitDx=0;exitDy=0;entryX=0.5;entryY=1;entryDx=0;entryDy=0;" parent="1" source="_7YUsY37ZqRuh6ZpaFpD-13" target="_7YUsY37ZqRuh6ZpaFpD-15" edge="1">
          <mxGeometry relative="1" as="geometry">
            <mxPoint x="-270" y="-170" as="sourcePoint" />
            <mxPoint x="-110" y="-170" as="targetPoint" />
          </mxGeometry>
        </mxCell>
        <mxCell id="_7YUsY37ZqRuh6ZpaFpD-20" value="" style="endArrow=none;html=1;rounded=0;exitX=0.5;exitY=0;exitDx=0;exitDy=0;entryX=0.5;entryY=1;entryDx=0;entryDy=0;" parent="1" source="_7YUsY37ZqRuh6ZpaFpD-13" target="_7YUsY37ZqRuh6ZpaFpD-17" edge="1">
          <mxGeometry relative="1" as="geometry">
            <mxPoint x="-270" y="-170" as="sourcePoint" />
            <mxPoint x="-110" y="-170" as="targetPoint" />
          </mxGeometry>
        </mxCell>
        <mxCell id="_7YUsY37ZqRuh6ZpaFpD-21" value="Birthdate" style="ellipse;whiteSpace=wrap;html=1;" parent="1" vertex="1">
          <mxGeometry x="-640" y="-70" width="100" height="40" as="geometry" />
        </mxCell>
        <mxCell id="_7YUsY37ZqRuh6ZpaFpD-22" value="Phonenumber" style="ellipse;whiteSpace=wrap;html=1;" parent="1" vertex="1">
          <mxGeometry x="-780" y="-160" width="100" height="40" as="geometry" />
        </mxCell>
        <mxCell id="_7YUsY37ZqRuh6ZpaFpD-24" value="Sex" style="ellipse;whiteSpace=wrap;html=1;" parent="1" vertex="1">
          <mxGeometry x="-570" y="-250" width="100" height="40" as="geometry" />
        </mxCell>
        <mxCell id="_7YUsY37ZqRuh6ZpaFpD-27" value="Experience_level" style="ellipse;whiteSpace=wrap;html=1;" parent="1" vertex="1">
          <mxGeometry x="-660" y="-155" width="100" height="40" as="geometry" />
        </mxCell>
        <mxCell id="_7YUsY37ZqRuh6ZpaFpD-30" value="Course_type" style="ellipse;whiteSpace=wrap;html=1;" parent="1" vertex="1">
          <mxGeometry x="-720" y="-115" width="100" height="45" as="geometry" />
        </mxCell>
        <mxCell id="_7YUsY37ZqRuh6ZpaFpD-32" value="Adult" style="ellipse;whiteSpace=wrap;html=1;align=center;dashed=1;" parent="1" vertex="1">
          <mxGeometry x="-690" y="-300" width="100" height="40" as="geometry" />
        </mxCell>
        <mxCell id="_7YUsY37ZqRuh6ZpaFpD-35" value="Brand" style="ellipse;whiteSpace=wrap;html=1;align=center;" parent="1" vertex="1">
          <mxGeometry x="250" y="-290" width="100" height="40" as="geometry" />
        </mxCell>
        <mxCell id="_7YUsY37ZqRuh6ZpaFpD-36" value="Ski_id" style="ellipse;whiteSpace=wrap;html=1;align=center;fontStyle=4;" parent="1" vertex="1">
          <mxGeometry x="60" y="-260" width="100" height="40" as="geometry" />
        </mxCell>
        <mxCell id="_7YUsY37ZqRuh6ZpaFpD-41" value="Length" style="ellipse;whiteSpace=wrap;html=1;align=center;" parent="1" vertex="1">
          <mxGeometry x="310" y="-250" width="100" height="40" as="geometry" />
        </mxCell>
        <mxCell id="_7YUsY37ZqRuh6ZpaFpD-44" value="Country" style="ellipse;whiteSpace=wrap;html=1;align=center;" parent="1" vertex="1">
          <mxGeometry x="-590" y="320" width="100" height="40" as="geometry" />
        </mxCell>
        <mxCell id="_7YUsY37ZqRuh6ZpaFpD-45" value="Area_id" style="ellipse;whiteSpace=wrap;html=1;align=center;fontStyle=4;" parent="1" vertex="1">
          <mxGeometry x="-640" y="410" width="100" height="40" as="geometry" />
        </mxCell>
        <mxCell id="_7YUsY37ZqRuh6ZpaFpD-46" value="Name" style="ellipse;whiteSpace=wrap;html=1;align=center;" parent="1" vertex="1">
          <mxGeometry x="-700" y="600" width="100" height="40" as="geometry" />
        </mxCell>
        <mxCell id="_7YUsY37ZqRuh6ZpaFpD-47" value="Difficulty_level" style="ellipse;whiteSpace=wrap;html=1;align=center;" parent="1" vertex="1">
          <mxGeometry x="-780" y="510" width="100" height="40" as="geometry" />
        </mxCell>
        <mxCell id="_7YUsY37ZqRuh6ZpaFpD-48" value="Opening_time" style="ellipse;whiteSpace=wrap;html=1;align=center;" parent="1" vertex="1">
          <mxGeometry x="-660" y="540" width="100" height="40" as="geometry" />
        </mxCell>
        <mxCell id="_7YUsY37ZqRuh6ZpaFpD-49" value="Closing_time" style="ellipse;whiteSpace=wrap;html=1;align=center;" parent="1" vertex="1">
          <mxGeometry x="-590" y="610" width="100" height="40" as="geometry" />
        </mxCell>
        <mxCell id="_7YUsY37ZqRuh6ZpaFpD-50" value="Magic_carpet" style="ellipse;whiteSpace=wrap;html=1;align=center;" parent="1" vertex="1">
          <mxGeometry x="-690" y="470" width="100" height="40" as="geometry" />
        </mxCell>
        <mxCell id="_7YUsY37ZqRuh6ZpaFpD-51" value="Location" style="ellipse;shape=doubleEllipse;margin=3;whiteSpace=wrap;html=1;align=center;" parent="1" vertex="1">
          <mxGeometry x="-530" y="400" width="100" height="40" as="geometry" />
        </mxCell>
        <mxCell id="_7YUsY37ZqRuh6ZpaFpD-52" value="City" style="ellipse;whiteSpace=wrap;html=1;align=center;" parent="1" vertex="1">
          <mxGeometry x="-470" y="320" width="100" height="40" as="geometry" />
        </mxCell>
        <mxCell id="_7YUsY37ZqRuh6ZpaFpD-57" value="" style="endArrow=none;html=1;rounded=0;exitX=0.5;exitY=0;exitDx=0;exitDy=0;entryX=0.5;entryY=1;entryDx=0;entryDy=0;" parent="1" source="_7YUsY37ZqRuh6ZpaFpD-51" target="_7YUsY37ZqRuh6ZpaFpD-44" edge="1">
          <mxGeometry relative="1" as="geometry">
            <mxPoint x="-350" y="280" as="sourcePoint" />
            <mxPoint x="-190" y="280" as="targetPoint" />
          </mxGeometry>
        </mxCell>
        <mxCell id="_7YUsY37ZqRuh6ZpaFpD-58" value="" style="endArrow=none;html=1;rounded=0;exitX=0.5;exitY=0;exitDx=0;exitDy=0;entryX=0.5;entryY=1;entryDx=0;entryDy=0;" parent="1" source="_7YUsY37ZqRuh6ZpaFpD-51" target="_7YUsY37ZqRuh6ZpaFpD-52" edge="1">
          <mxGeometry relative="1" as="geometry">
            <mxPoint x="-350" y="280" as="sourcePoint" />
            <mxPoint x="-190" y="280" as="targetPoint" />
          </mxGeometry>
        </mxCell>
        <mxCell id="_7YUsY37ZqRuh6ZpaFpD-62" value="Start_location" style="ellipse;whiteSpace=wrap;html=1;align=center;" parent="1" vertex="1">
          <mxGeometry x="-210" y="840" width="100" height="40" as="geometry" />
        </mxCell>
        <mxCell id="_7YUsY37ZqRuh6ZpaFpD-63" value="End_location" style="ellipse;whiteSpace=wrap;html=1;align=center;" parent="1" vertex="1">
          <mxGeometry x="-130" y="800" width="100" height="40" as="geometry" />
        </mxCell>
        <mxCell id="_7YUsY37ZqRuh6ZpaFpD-64" value="Capacity" style="ellipse;whiteSpace=wrap;html=1;align=center;" parent="1" vertex="1">
          <mxGeometry x="-90" y="750" width="100" height="40" as="geometry" />
        </mxCell>
        <mxCell id="_7YUsY37ZqRuh6ZpaFpD-65" value="Type" style="ellipse;whiteSpace=wrap;html=1;align=center;" parent="1" vertex="1">
          <mxGeometry x="-310" y="860" width="100" height="40" as="geometry" />
        </mxCell>
        <mxCell id="_7YUsY37ZqRuh6ZpaFpD-66" value="Employee_id" style="ellipse;whiteSpace=wrap;html=1;align=center;fontStyle=4;" parent="1" vertex="1">
          <mxGeometry x="-40" y="145" width="100" height="40" as="geometry" />
        </mxCell>
        <mxCell id="_7YUsY37ZqRuh6ZpaFpD-68" value="Name" style="ellipse;whiteSpace=wrap;html=1;align=center;" parent="1" vertex="1">
          <mxGeometry x="70" y="140" width="100" height="40" as="geometry" />
        </mxCell>
        <mxCell id="_7YUsY37ZqRuh6ZpaFpD-69" value="Address" style="ellipse;shape=doubleEllipse;margin=3;whiteSpace=wrap;html=1;align=center;" parent="1" vertex="1">
          <mxGeometry x="220" y="110" width="100" height="40" as="geometry" />
        </mxCell>
        <mxCell id="_7YUsY37ZqRuh6ZpaFpD-70" value="Street" style="ellipse;whiteSpace=wrap;html=1;" parent="1" vertex="1">
          <mxGeometry x="140" y="50" width="100" height="40" as="geometry" />
        </mxCell>
        <mxCell id="_7YUsY37ZqRuh6ZpaFpD-71" value="House_num" style="ellipse;whiteSpace=wrap;html=1;" parent="1" vertex="1">
          <mxGeometry x="250" y="50" width="100" height="40" as="geometry" />
        </mxCell>
        <mxCell id="_7YUsY37ZqRuh6ZpaFpD-72" value="Post_code" style="ellipse;whiteSpace=wrap;html=1;" parent="1" vertex="1">
          <mxGeometry x="350" y="70" width="100" height="40" as="geometry" />
        </mxCell>
        <mxCell id="_7YUsY37ZqRuh6ZpaFpD-73" value="" style="endArrow=none;html=1;rounded=0;entryX=0.5;entryY=0;entryDx=0;entryDy=0;exitX=0.5;exitY=1;exitDx=0;exitDy=0;" parent="1" source="_7YUsY37ZqRuh6ZpaFpD-71" target="_7YUsY37ZqRuh6ZpaFpD-69" edge="1">
          <mxGeometry relative="1" as="geometry">
            <mxPoint x="310" y="150" as="sourcePoint" />
            <mxPoint x="470" y="150" as="targetPoint" />
          </mxGeometry>
        </mxCell>
        <mxCell id="_7YUsY37ZqRuh6ZpaFpD-74" value="" style="endArrow=none;html=1;rounded=0;exitX=0.5;exitY=0;exitDx=0;exitDy=0;entryX=0.5;entryY=1;entryDx=0;entryDy=0;" parent="1" source="_7YUsY37ZqRuh6ZpaFpD-69" target="_7YUsY37ZqRuh6ZpaFpD-70" edge="1">
          <mxGeometry relative="1" as="geometry">
            <mxPoint x="310" y="150" as="sourcePoint" />
            <mxPoint x="470" y="150" as="targetPoint" />
          </mxGeometry>
        </mxCell>
        <mxCell id="_7YUsY37ZqRuh6ZpaFpD-75" value="" style="endArrow=none;html=1;rounded=0;exitX=0.5;exitY=0;exitDx=0;exitDy=0;entryX=0.5;entryY=1;entryDx=0;entryDy=0;" parent="1" source="_7YUsY37ZqRuh6ZpaFpD-69" target="_7YUsY37ZqRuh6ZpaFpD-72" edge="1">
          <mxGeometry relative="1" as="geometry">
            <mxPoint x="310" y="150" as="sourcePoint" />
            <mxPoint x="470" y="150" as="targetPoint" />
          </mxGeometry>
        </mxCell>
        <mxCell id="_7YUsY37ZqRuh6ZpaFpD-76" value="Birthdate" style="ellipse;whiteSpace=wrap;html=1;" parent="1" vertex="1">
          <mxGeometry x="320" y="170" width="100" height="40" as="geometry" />
        </mxCell>
        <mxCell id="_7YUsY37ZqRuh6ZpaFpD-77" value="Phonenumber" style="ellipse;whiteSpace=wrap;html=1;" parent="1" vertex="1">
          <mxGeometry x="320" y="360" width="100" height="40" as="geometry" />
        </mxCell>
        <mxCell id="_7YUsY37ZqRuh6ZpaFpD-78" value="Job_title" style="ellipse;whiteSpace=wrap;html=1;" parent="1" vertex="1">
          <mxGeometry x="450" y="185" width="100" height="40" as="geometry" />
        </mxCell>
        <mxCell id="_7YUsY37ZqRuh6ZpaFpD-79" value="Sex" style="ellipse;whiteSpace=wrap;html=1;" parent="1" vertex="1">
          <mxGeometry x="360" y="230" width="100" height="40" as="geometry" />
        </mxCell>
        <mxCell id="_7YUsY37ZqRuh6ZpaFpD-80" value="Age" style="ellipse;whiteSpace=wrap;html=1;align=center;dashed=1;" parent="1" vertex="1">
          <mxGeometry x="330" y="300" width="100" height="40" as="geometry" />
        </mxCell>
        <mxCell id="_7YUsY37ZqRuh6ZpaFpD-83" value="SALARY" style="rounded=0;whiteSpace=wrap;html=1;" parent="1" vertex="1">
          <mxGeometry x="170" y="530" width="120" height="60" as="geometry" />
        </mxCell>
        <mxCell id="_7YUsY37ZqRuh6ZpaFpD-84" value="Instructor_level" style="ellipse;whiteSpace=wrap;html=1;" parent="1" vertex="1">
          <mxGeometry x="310" y="420" width="100" height="40" as="geometry" />
        </mxCell>
        <mxCell id="_7YUsY37ZqRuh6ZpaFpD-87" value="Salary_group" style="ellipse;whiteSpace=wrap;html=1;align=center;fontStyle=4;" parent="1" vertex="1">
          <mxGeometry x="100" y="630" width="100" height="40" as="geometry" />
        </mxCell>
        <mxCell id="_7YUsY37ZqRuh6ZpaFpD-88" value="Salary" style="ellipse;whiteSpace=wrap;html=1;" parent="1" vertex="1">
          <mxGeometry x="230" y="630" width="100" height="40" as="geometry" />
        </mxCell>
        <mxCell id="_7YUsY37ZqRuh6ZpaFpD-89" value="Course_id" style="ellipse;whiteSpace=wrap;html=1;align=center;fontStyle=4;" parent="1" vertex="1">
          <mxGeometry x="-690" y="185" width="100" height="40" as="geometry" />
        </mxCell>
        <mxCell id="_7YUsY37ZqRuh6ZpaFpD-90" value="Course_level" style="ellipse;whiteSpace=wrap;html=1;" parent="1" vertex="1">
          <mxGeometry x="-650" y="250" width="100" height="40" as="geometry" />
        </mxCell>
        <mxCell id="_7YUsY37ZqRuh6ZpaFpD-91" value="Start_date" style="ellipse;whiteSpace=wrap;html=1;" parent="1" vertex="1">
          <mxGeometry x="-540" y="90" width="100" height="40" as="geometry" />
        </mxCell>
        <mxCell id="_7YUsY37ZqRuh6ZpaFpD-92" value="End_date" style="ellipse;whiteSpace=wrap;html=1;" parent="1" vertex="1">
          <mxGeometry x="-650" y="120" width="100" height="40" as="geometry" />
        </mxCell>
        <mxCell id="_7YUsY37ZqRuh6ZpaFpD-94" value="Accomidation_id" style="ellipse;whiteSpace=wrap;html=1;" parent="1" vertex="1">
          <mxGeometry x="-230" y="-430" width="100" height="40" as="geometry" />
        </mxCell>
        <mxCell id="_7YUsY37ZqRuh6ZpaFpD-96" value="Address" style="ellipse;shape=doubleEllipse;margin=3;whiteSpace=wrap;html=1;align=center;" parent="1" vertex="1">
          <mxGeometry x="110" y="-460" width="100" height="40" as="geometry" />
        </mxCell>
        <mxCell id="_7YUsY37ZqRuh6ZpaFpD-97" value="Street" style="ellipse;whiteSpace=wrap;html=1;" parent="1" vertex="1">
          <mxGeometry x="40" y="-540" width="100" height="40" as="geometry" />
        </mxCell>
        <mxCell id="_7YUsY37ZqRuh6ZpaFpD-98" value="House_num" style="ellipse;whiteSpace=wrap;html=1;" parent="1" vertex="1">
          <mxGeometry x="150" y="-540" width="100" height="40" as="geometry" />
        </mxCell>
        <mxCell id="_7YUsY37ZqRuh6ZpaFpD-99" value="Post_code" style="ellipse;whiteSpace=wrap;html=1;" parent="1" vertex="1">
          <mxGeometry x="260" y="-530" width="100" height="40" as="geometry" />
        </mxCell>
        <mxCell id="_7YUsY37ZqRuh6ZpaFpD-100" value="" style="endArrow=none;html=1;rounded=0;entryX=0.5;entryY=0;entryDx=0;entryDy=0;exitX=0.5;exitY=1;exitDx=0;exitDy=0;" parent="1" source="_7YUsY37ZqRuh6ZpaFpD-98" target="_7YUsY37ZqRuh6ZpaFpD-96" edge="1">
          <mxGeometry relative="1" as="geometry">
            <mxPoint x="200" y="-420" as="sourcePoint" />
            <mxPoint x="360" y="-420" as="targetPoint" />
          </mxGeometry>
        </mxCell>
        <mxCell id="_7YUsY37ZqRuh6ZpaFpD-101" value="" style="endArrow=none;html=1;rounded=0;exitX=0.5;exitY=0;exitDx=0;exitDy=0;entryX=0.5;entryY=1;entryDx=0;entryDy=0;" parent="1" source="_7YUsY37ZqRuh6ZpaFpD-96" target="_7YUsY37ZqRuh6ZpaFpD-97" edge="1">
          <mxGeometry relative="1" as="geometry">
            <mxPoint x="200" y="-420" as="sourcePoint" />
            <mxPoint x="360" y="-420" as="targetPoint" />
          </mxGeometry>
        </mxCell>
        <mxCell id="_7YUsY37ZqRuh6ZpaFpD-102" value="" style="endArrow=none;html=1;rounded=0;exitX=0.5;exitY=0;exitDx=0;exitDy=0;entryX=0.5;entryY=1;entryDx=0;entryDy=0;" parent="1" source="_7YUsY37ZqRuh6ZpaFpD-96" target="_7YUsY37ZqRuh6ZpaFpD-99" edge="1">
          <mxGeometry relative="1" as="geometry">
            <mxPoint x="200" y="-420" as="sourcePoint" />
            <mxPoint x="360" y="-420" as="targetPoint" />
          </mxGeometry>
        </mxCell>
        <mxCell id="_7YUsY37ZqRuh6ZpaFpD-103" value="Type" style="ellipse;whiteSpace=wrap;html=1;" parent="1" vertex="1">
          <mxGeometry x="-20" y="-490" width="100" height="40" as="geometry" />
        </mxCell>
        <mxCell id="_7YUsY37ZqRuh6ZpaFpD-104" value="Name" style="ellipse;whiteSpace=wrap;html=1;" parent="1" vertex="1">
          <mxGeometry x="-150" y="-480" width="100" height="40" as="geometry" />
        </mxCell>
        <mxCell id="_7YUsY37ZqRuh6ZpaFpD-105" value="RENTS" style="shape=rhombus;perimeter=rhombusPerimeter;whiteSpace=wrap;html=1;align=center;" parent="1" vertex="1">
          <mxGeometry x="-140" y="-165" width="120" height="60" as="geometry" />
        </mxCell>
        <mxCell id="_7YUsY37ZqRuh6ZpaFpD-115" value="IS IN" style="shape=rhombus;perimeter=rhombusPerimeter;whiteSpace=wrap;html=1;align=center;" parent="1" vertex="1">
          <mxGeometry x="-400" y="30" width="120" height="60" as="geometry" />
        </mxCell>
        <mxCell id="_7YUsY37ZqRuh6ZpaFpD-148" value="SUPERVISES" style="shape=rhombus;perimeter=rhombusPerimeter;whiteSpace=wrap;html=1;align=center;" parent="1" vertex="1">
          <mxGeometry x="-230" y="210" width="120" height="60" as="geometry" />
        </mxCell>
        <mxCell id="_7YUsY37ZqRuh6ZpaFpD-160" value="" style="endArrow=none;html=1;rounded=0;entryX=0;entryY=0.5;entryDx=0;entryDy=0;exitX=1;exitY=0.5;exitDx=0;exitDy=0;" parent="1" source="_7YUsY37ZqRuh6ZpaFpD-2" target="_7YUsY37ZqRuh6ZpaFpD-105" edge="1">
          <mxGeometry relative="1" as="geometry">
            <mxPoint x="-230" y="-100" as="sourcePoint" />
            <mxPoint x="-70" y="-100" as="targetPoint" />
          </mxGeometry>
        </mxCell>
        <mxCell id="_7YUsY37ZqRuh6ZpaFpD-161" value="1" style="resizable=0;html=1;whiteSpace=wrap;align=right;verticalAlign=bottom;" parent="_7YUsY37ZqRuh6ZpaFpD-160" connectable="0" vertex="1">
          <mxGeometry x="1" relative="1" as="geometry" />
        </mxCell>
        <mxCell id="_7YUsY37ZqRuh6ZpaFpD-162" value="HAS" style="shape=rhombus;perimeter=rhombusPerimeter;whiteSpace=wrap;html=1;align=center;" parent="1" vertex="1">
          <mxGeometry x="120" y="390" width="120" height="60" as="geometry" />
        </mxCell>
        <mxCell id="_7YUsY37ZqRuh6ZpaFpD-171" value="STAYS AT" style="shape=rhombus;perimeter=rhombusPerimeter;whiteSpace=wrap;html=1;align=center;" parent="1" vertex="1">
          <mxGeometry x="-130" y="-330" width="120" height="60" as="geometry" />
        </mxCell>
        <mxCell id="_7YUsY37ZqRuh6ZpaFpD-178" value="" style="endArrow=none;html=1;rounded=0;exitX=1;exitY=0.5;exitDx=0;exitDy=0;entryX=0.5;entryY=1;entryDx=0;entryDy=0;" parent="1" source="_7YUsY37ZqRuh6ZpaFpD-2" target="_7YUsY37ZqRuh6ZpaFpD-171" edge="1">
          <mxGeometry relative="1" as="geometry">
            <mxPoint x="-10" y="-170" as="sourcePoint" />
            <mxPoint x="100" y="-240" as="targetPoint" />
          </mxGeometry>
        </mxCell>
        <mxCell id="_7YUsY37ZqRuh6ZpaFpD-179" value="N" style="resizable=0;html=1;whiteSpace=wrap;align=right;verticalAlign=bottom;" parent="_7YUsY37ZqRuh6ZpaFpD-178" connectable="0" vertex="1">
          <mxGeometry x="1" relative="1" as="geometry" />
        </mxCell>
        <mxCell id="_7YUsY37ZqRuh6ZpaFpD-180" value="" style="endArrow=none;html=1;rounded=0;entryX=0.5;entryY=0;entryDx=0;entryDy=0;exitX=0.5;exitY=1;exitDx=0;exitDy=0;" parent="1" source="_7YUsY37ZqRuh6ZpaFpD-8" target="_7YUsY37ZqRuh6ZpaFpD-171" edge="1">
          <mxGeometry relative="1" as="geometry">
            <mxPoint x="-10" y="-170" as="sourcePoint" />
            <mxPoint x="150" y="-170" as="targetPoint" />
          </mxGeometry>
        </mxCell>
        <mxCell id="_7YUsY37ZqRuh6ZpaFpD-181" value="1" style="resizable=0;html=1;whiteSpace=wrap;align=right;verticalAlign=bottom;" parent="_7YUsY37ZqRuh6ZpaFpD-180" connectable="0" vertex="1">
          <mxGeometry x="1" relative="1" as="geometry" />
        </mxCell>
        <mxCell id="_7YUsY37ZqRuh6ZpaFpD-182" value="IS IN" style="shape=rhombus;perimeter=rhombusPerimeter;whiteSpace=wrap;html=1;align=center;" parent="1" vertex="1">
          <mxGeometry x="-290" y="390" width="120" height="60" as="geometry" />
        </mxCell>
        <mxCell id="_7YUsY37ZqRuh6ZpaFpD-187" value="" style="endArrow=none;html=1;rounded=0;exitX=1;exitY=0.5;exitDx=0;exitDy=0;entryX=0.5;entryY=1;entryDx=0;entryDy=0;" parent="1" source="_7YUsY37ZqRuh6ZpaFpD-5" target="_7YUsY37ZqRuh6ZpaFpD-182" edge="1">
          <mxGeometry relative="1" as="geometry">
            <mxPoint x="-250" y="640" as="sourcePoint" />
            <mxPoint x="-90" y="640" as="targetPoint" />
          </mxGeometry>
        </mxCell>
        <mxCell id="_7YUsY37ZqRuh6ZpaFpD-188" value="1" style="resizable=0;html=1;whiteSpace=wrap;align=right;verticalAlign=bottom;" parent="_7YUsY37ZqRuh6ZpaFpD-187" connectable="0" vertex="1">
          <mxGeometry x="1" relative="1" as="geometry" />
        </mxCell>
        <mxCell id="_7YUsY37ZqRuh6ZpaFpD-192" value="" style="shape=rhombus;perimeter=rhombusPerimeter;whiteSpace=wrap;html=1;align=center;" parent="1" vertex="1">
          <mxGeometry x="-350" y="570" width="120" height="60" as="geometry" />
        </mxCell>
        <mxCell id="_7YUsY37ZqRuh6ZpaFpD-196" value="" style="endArrow=none;html=1;rounded=0;exitX=0.5;exitY=1;exitDx=0;exitDy=0;entryX=0.5;entryY=0;entryDx=0;entryDy=0;" parent="1" source="_7YUsY37ZqRuh6ZpaFpD-5" target="_7YUsY37ZqRuh6ZpaFpD-192" edge="1">
          <mxGeometry relative="1" as="geometry">
            <mxPoint x="-250" y="640" as="sourcePoint" />
            <mxPoint x="-90" y="640" as="targetPoint" />
          </mxGeometry>
        </mxCell>
        <mxCell id="_7YUsY37ZqRuh6ZpaFpD-197" value="1" style="resizable=0;html=1;whiteSpace=wrap;align=right;verticalAlign=bottom;" parent="_7YUsY37ZqRuh6ZpaFpD-196" connectable="0" vertex="1">
          <mxGeometry x="1" relative="1" as="geometry" />
        </mxCell>
        <mxCell id="_7YUsY37ZqRuh6ZpaFpD-198" value="" style="shape=link;html=1;rounded=0;exitX=0.5;exitY=0;exitDx=0;exitDy=0;entryX=0.5;entryY=1;entryDx=0;entryDy=0;" parent="1" source="_7YUsY37ZqRuh6ZpaFpD-202" target="_7YUsY37ZqRuh6ZpaFpD-192" edge="1">
          <mxGeometry relative="1" as="geometry">
            <mxPoint x="-240" y="730" as="sourcePoint" />
            <mxPoint x="-120" y="680" as="targetPoint" />
          </mxGeometry>
        </mxCell>
        <mxCell id="_7YUsY37ZqRuh6ZpaFpD-199" value="N" style="resizable=0;html=1;whiteSpace=wrap;align=right;verticalAlign=bottom;" parent="_7YUsY37ZqRuh6ZpaFpD-198" connectable="0" vertex="1">
          <mxGeometry x="1" relative="1" as="geometry">
            <mxPoint y="20" as="offset" />
          </mxGeometry>
        </mxCell>
        <mxCell id="_7YUsY37ZqRuh6ZpaFpD-200" value="" style="shape=link;html=1;rounded=0;exitX=0.5;exitY=1;exitDx=0;exitDy=0;entryX=0.5;entryY=0;entryDx=0;entryDy=0;" parent="1" source="_7YUsY37ZqRuh6ZpaFpD-4" target="_7YUsY37ZqRuh6ZpaFpD-182" edge="1">
          <mxGeometry relative="1" as="geometry">
            <mxPoint x="-250" y="340" as="sourcePoint" />
            <mxPoint x="-90" y="340" as="targetPoint" />
          </mxGeometry>
        </mxCell>
        <mxCell id="_7YUsY37ZqRuh6ZpaFpD-201" value="N" style="resizable=0;html=1;whiteSpace=wrap;align=right;verticalAlign=bottom;" parent="_7YUsY37ZqRuh6ZpaFpD-200" connectable="0" vertex="1">
          <mxGeometry x="1" relative="1" as="geometry" />
        </mxCell>
        <mxCell id="_7YUsY37ZqRuh6ZpaFpD-202" value="SHUTTLE" style="shape=ext;margin=3;double=1;whiteSpace=wrap;html=1;align=center;" parent="1" vertex="1">
          <mxGeometry x="-290" y="740" width="130" height="50" as="geometry" />
        </mxCell>
        <mxCell id="_7YUsY37ZqRuh6ZpaFpD-203" value="&lt;span style=&quot;border-bottom: 1px dotted&quot;&gt;Shuttle_name&lt;/span&gt;" style="ellipse;whiteSpace=wrap;html=1;align=center;" parent="1" vertex="1">
          <mxGeometry x="-410" y="820" width="100" height="40" as="geometry" />
        </mxCell>
        <mxCell id="BchM0v5HkjgXGt6HoBju-3" value="" style="endArrow=none;html=1;rounded=0;exitX=0.5;exitY=1;exitDx=0;exitDy=0;entryX=0.5;entryY=0;entryDx=0;entryDy=0;" parent="1" source="_7YUsY37ZqRuh6ZpaFpD-7" target="_7YUsY37ZqRuh6ZpaFpD-162" edge="1">
          <mxGeometry relative="1" as="geometry">
            <mxPoint x="-40" y="580" as="sourcePoint" />
            <mxPoint x="120" y="580" as="targetPoint" />
          </mxGeometry>
        </mxCell>
        <mxCell id="BchM0v5HkjgXGt6HoBju-4" value="N" style="resizable=0;html=1;whiteSpace=wrap;align=right;verticalAlign=bottom;" parent="BchM0v5HkjgXGt6HoBju-3" connectable="0" vertex="1">
          <mxGeometry x="1" relative="1" as="geometry" />
        </mxCell>
        <mxCell id="BchM0v5HkjgXGt6HoBju-5" value="" style="endArrow=none;html=1;rounded=0;entryX=0.5;entryY=1;entryDx=0;entryDy=0;exitX=0.5;exitY=0;exitDx=0;exitDy=0;" parent="1" source="_7YUsY37ZqRuh6ZpaFpD-83" target="_7YUsY37ZqRuh6ZpaFpD-162" edge="1">
          <mxGeometry relative="1" as="geometry">
            <mxPoint x="270" y="460" as="sourcePoint" />
            <mxPoint x="270" y="520" as="targetPoint" />
          </mxGeometry>
        </mxCell>
        <mxCell id="BchM0v5HkjgXGt6HoBju-6" value="1" style="resizable=0;html=1;whiteSpace=wrap;align=right;verticalAlign=bottom;" parent="BchM0v5HkjgXGt6HoBju-5" connectable="0" vertex="1">
          <mxGeometry x="1" relative="1" as="geometry" />
        </mxCell>
        <mxCell id="BchM0v5HkjgXGt6HoBju-7" value="" style="shape=link;html=1;rounded=0;width=-4.285714285714286;exitX=1;exitY=0.5;exitDx=0;exitDy=0;entryX=0;entryY=0.5;entryDx=0;entryDy=0;" parent="1" source="_7YUsY37ZqRuh6ZpaFpD-4" target="_7YUsY37ZqRuh6ZpaFpD-148" edge="1">
          <mxGeometry relative="1" as="geometry">
            <mxPoint x="-40" y="150" as="sourcePoint" />
            <mxPoint x="120" y="150" as="targetPoint" />
          </mxGeometry>
        </mxCell>
        <mxCell id="BchM0v5HkjgXGt6HoBju-8" value="N" style="resizable=0;html=1;whiteSpace=wrap;align=right;verticalAlign=bottom;" parent="BchM0v5HkjgXGt6HoBju-7" connectable="0" vertex="1">
          <mxGeometry x="1" relative="1" as="geometry" />
        </mxCell>
        <mxCell id="BchM0v5HkjgXGt6HoBju-11" value="" style="endArrow=none;html=1;rounded=0;entryX=1;entryY=0.5;entryDx=0;entryDy=0;exitX=0;exitY=0.5;exitDx=0;exitDy=0;" parent="1" source="_7YUsY37ZqRuh6ZpaFpD-7" target="_7YUsY37ZqRuh6ZpaFpD-148" edge="1">
          <mxGeometry relative="1" as="geometry">
            <mxPoint x="-40" y="150" as="sourcePoint" />
            <mxPoint x="120" y="150" as="targetPoint" />
          </mxGeometry>
        </mxCell>
        <mxCell id="BchM0v5HkjgXGt6HoBju-12" value="1" style="resizable=0;html=1;whiteSpace=wrap;align=right;verticalAlign=bottom;" parent="BchM0v5HkjgXGt6HoBju-11" connectable="0" vertex="1">
          <mxGeometry x="1" relative="1" as="geometry" />
        </mxCell>
        <mxCell id="BchM0v5HkjgXGt6HoBju-13" value="" style="endArrow=none;html=1;rounded=0;entryX=0.5;entryY=1;entryDx=0;entryDy=0;exitX=0.5;exitY=0;exitDx=0;exitDy=0;" parent="1" source="_7YUsY37ZqRuh6ZpaFpD-4" target="_7YUsY37ZqRuh6ZpaFpD-115" edge="1">
          <mxGeometry relative="1" as="geometry">
            <mxPoint x="-40" y="40" as="sourcePoint" />
            <mxPoint x="120" y="40" as="targetPoint" />
          </mxGeometry>
        </mxCell>
        <mxCell id="BchM0v5HkjgXGt6HoBju-14" value="N" style="resizable=0;html=1;whiteSpace=wrap;align=right;verticalAlign=bottom;" parent="BchM0v5HkjgXGt6HoBju-13" connectable="0" vertex="1">
          <mxGeometry x="1" relative="1" as="geometry" />
        </mxCell>
        <mxCell id="BchM0v5HkjgXGt6HoBju-15" value="" style="endArrow=none;html=1;rounded=0;entryX=0.5;entryY=0;entryDx=0;entryDy=0;exitX=0.5;exitY=1;exitDx=0;exitDy=0;" parent="1" source="_7YUsY37ZqRuh6ZpaFpD-2" target="_7YUsY37ZqRuh6ZpaFpD-115" edge="1">
          <mxGeometry relative="1" as="geometry">
            <mxPoint x="-40" y="40" as="sourcePoint" />
            <mxPoint x="120" y="40" as="targetPoint" />
          </mxGeometry>
        </mxCell>
        <mxCell id="BchM0v5HkjgXGt6HoBju-16" value="N" style="resizable=0;html=1;whiteSpace=wrap;align=right;verticalAlign=bottom;" parent="BchM0v5HkjgXGt6HoBju-15" connectable="0" vertex="1">
          <mxGeometry x="1" relative="1" as="geometry" />
        </mxCell>
        <mxCell id="BchM0v5HkjgXGt6HoBju-23" value="" style="endArrow=none;html=1;rounded=0;entryX=1;entryY=0.5;entryDx=0;entryDy=0;exitX=0;exitY=0.5;exitDx=0;exitDy=0;" parent="1" source="_7YUsY37ZqRuh6ZpaFpD-3" target="_7YUsY37ZqRuh6ZpaFpD-105" edge="1">
          <mxGeometry relative="1" as="geometry">
            <mxPoint x="-400" y="-90" as="sourcePoint" />
            <mxPoint x="-190" y="-105" as="targetPoint" />
          </mxGeometry>
        </mxCell>
        <mxCell id="BchM0v5HkjgXGt6HoBju-24" value="1" style="resizable=0;html=1;whiteSpace=wrap;align=right;verticalAlign=bottom;" parent="BchM0v5HkjgXGt6HoBju-23" connectable="0" vertex="1">
          <mxGeometry x="1" relative="1" as="geometry" />
        </mxCell>
        <mxCell id="BchM0v5HkjgXGt6HoBju-26" value="HELMETS" style="rounded=0;whiteSpace=wrap;html=1;" parent="1" vertex="1">
          <mxGeometry x="480" y="-100" width="120" height="60" as="geometry" />
        </mxCell>
        <mxCell id="BchM0v5HkjgXGt6HoBju-27" value="Brand" style="ellipse;whiteSpace=wrap;html=1;align=center;" parent="1" vertex="1">
          <mxGeometry x="530" y="-185" width="100" height="40" as="geometry" />
        </mxCell>
        <mxCell id="BchM0v5HkjgXGt6HoBju-28" value="Helmet_id" style="ellipse;whiteSpace=wrap;html=1;align=center;fontStyle=4;" parent="1" vertex="1">
          <mxGeometry x="410" y="-155" width="100" height="40" as="geometry" />
        </mxCell>
        <mxCell id="BchM0v5HkjgXGt6HoBju-29" value="Size" style="ellipse;whiteSpace=wrap;html=1;align=center;" parent="1" vertex="1">
          <mxGeometry x="630" y="-155" width="100" height="40" as="geometry" />
        </mxCell>
        <mxCell id="BchM0v5HkjgXGt6HoBju-30" value="RENTS" style="shape=rhombus;perimeter=rhombusPerimeter;whiteSpace=wrap;html=1;align=center;" parent="1" vertex="1">
          <mxGeometry x="-110" y="-100" width="120" height="60" as="geometry" />
        </mxCell>
        <mxCell id="BchM0v5HkjgXGt6HoBju-31" value="" style="endArrow=none;html=1;rounded=0;entryX=0;entryY=0.5;entryDx=0;entryDy=0;exitX=1;exitY=0.5;exitDx=0;exitDy=0;" parent="1" source="_7YUsY37ZqRuh6ZpaFpD-2" target="BchM0v5HkjgXGt6HoBju-30" edge="1">
          <mxGeometry relative="1" as="geometry">
            <mxPoint x="-380" y="-35" as="sourcePoint" />
            <mxPoint x="-40" y="-35" as="targetPoint" />
          </mxGeometry>
        </mxCell>
        <mxCell id="BchM0v5HkjgXGt6HoBju-32" value="1" style="resizable=0;html=1;whiteSpace=wrap;align=right;verticalAlign=bottom;" parent="BchM0v5HkjgXGt6HoBju-31" connectable="0" vertex="1">
          <mxGeometry x="1" relative="1" as="geometry" />
        </mxCell>
        <mxCell id="BchM0v5HkjgXGt6HoBju-33" value="" style="endArrow=none;html=1;rounded=0;entryX=1;entryY=0.5;entryDx=0;entryDy=0;exitX=0;exitY=0.5;exitDx=0;exitDy=0;" parent="1" source="BchM0v5HkjgXGt6HoBju-26" target="BchM0v5HkjgXGt6HoBju-30" edge="1">
          <mxGeometry relative="1" as="geometry">
            <mxPoint x="210" y="-90" as="sourcePoint" />
            <mxPoint x="-160" y="-40" as="targetPoint" />
          </mxGeometry>
        </mxCell>
        <mxCell id="BchM0v5HkjgXGt6HoBju-34" value="1" style="resizable=0;html=1;whiteSpace=wrap;align=right;verticalAlign=bottom;" parent="BchM0v5HkjgXGt6HoBju-33" connectable="0" vertex="1">
          <mxGeometry x="1" relative="1" as="geometry" />
        </mxCell>
        <mxCell id="BchM0v5HkjgXGt6HoBju-35" value="POLES" style="rounded=0;whiteSpace=wrap;html=1;" parent="1" vertex="1">
          <mxGeometry x="690" y="50" width="120" height="60" as="geometry" />
        </mxCell>
        <mxCell id="BchM0v5HkjgXGt6HoBju-36" value="Brand" style="ellipse;whiteSpace=wrap;html=1;align=center;" parent="1" vertex="1">
          <mxGeometry x="730" y="190" width="100" height="40" as="geometry" />
        </mxCell>
        <mxCell id="BchM0v5HkjgXGt6HoBju-37" value="Poles_id" style="ellipse;whiteSpace=wrap;html=1;align=center;fontStyle=4;" parent="1" vertex="1">
          <mxGeometry x="630" y="150" width="100" height="40" as="geometry" />
        </mxCell>
        <mxCell id="BchM0v5HkjgXGt6HoBju-38" value="Length" style="ellipse;whiteSpace=wrap;html=1;align=center;" parent="1" vertex="1">
          <mxGeometry x="840" y="150" width="100" height="40" as="geometry" />
        </mxCell>
        <mxCell id="BchM0v5HkjgXGt6HoBju-39" value="RENTS" style="shape=rhombus;perimeter=rhombusPerimeter;whiteSpace=wrap;html=1;align=center;" parent="1" vertex="1">
          <mxGeometry x="-20" y="-50" width="120" height="60" as="geometry" />
        </mxCell>
        <mxCell id="BchM0v5HkjgXGt6HoBju-40" value="" style="endArrow=none;html=1;rounded=0;entryX=0;entryY=0.5;entryDx=0;entryDy=0;exitX=1;exitY=0.5;exitDx=0;exitDy=0;" parent="1" source="_7YUsY37ZqRuh6ZpaFpD-2" target="BchM0v5HkjgXGt6HoBju-39" edge="1">
          <mxGeometry relative="1" as="geometry">
            <mxPoint x="-200" y="50" as="sourcePoint" />
            <mxPoint x="170" y="115" as="targetPoint" />
          </mxGeometry>
        </mxCell>
        <mxCell id="BchM0v5HkjgXGt6HoBju-41" value="1" style="resizable=0;html=1;whiteSpace=wrap;align=right;verticalAlign=bottom;" parent="BchM0v5HkjgXGt6HoBju-40" connectable="0" vertex="1">
          <mxGeometry x="1" relative="1" as="geometry" />
        </mxCell>
        <mxCell id="BchM0v5HkjgXGt6HoBju-42" value="" style="endArrow=none;html=1;rounded=0;entryX=1;entryY=0.5;entryDx=0;entryDy=0;exitX=0;exitY=0.5;exitDx=0;exitDy=0;" parent="1" source="BchM0v5HkjgXGt6HoBju-35" target="BchM0v5HkjgXGt6HoBju-39" edge="1">
          <mxGeometry relative="1" as="geometry">
            <mxPoint x="420" y="60" as="sourcePoint" />
            <mxPoint x="50" y="110" as="targetPoint" />
          </mxGeometry>
        </mxCell>
        <mxCell id="BchM0v5HkjgXGt6HoBju-43" value="1" style="resizable=0;html=1;whiteSpace=wrap;align=right;verticalAlign=bottom;" parent="BchM0v5HkjgXGt6HoBju-42" connectable="0" vertex="1">
          <mxGeometry x="1" relative="1" as="geometry" />
        </mxCell>
        <mxCell id="BchM0v5HkjgXGt6HoBju-44" value="Drives IN" style="shape=rhombus;perimeter=rhombusPerimeter;whiteSpace=wrap;html=1;align=center;" parent="1" vertex="1">
          <mxGeometry x="-340" y="575" width="100" height="50" as="geometry" />
        </mxCell>
        <mxCell id="BchM0v5HkjgXGt6HoBju-45" value="First_Name" style="ellipse;whiteSpace=wrap;html=1;" parent="1" vertex="1">
          <mxGeometry x="-70" y="60" width="100" height="40" as="geometry" />
        </mxCell>
        <mxCell id="BchM0v5HkjgXGt6HoBju-46" value="Last_Name" style="ellipse;whiteSpace=wrap;html=1;" parent="1" vertex="1">
          <mxGeometry x="30" y="60" width="100" height="40" as="geometry" />
        </mxCell>
        <mxCell id="BchM0v5HkjgXGt6HoBju-47" value="" style="endArrow=none;html=1;rounded=0;exitX=0.5;exitY=1;exitDx=0;exitDy=0;entryX=0.5;entryY=0;entryDx=0;entryDy=0;" parent="1" source="BchM0v5HkjgXGt6HoBju-46" target="_7YUsY37ZqRuh6ZpaFpD-68" edge="1">
          <mxGeometry relative="1" as="geometry">
            <mxPoint x="130" y="150" as="sourcePoint" />
            <mxPoint x="120" y="130" as="targetPoint" />
          </mxGeometry>
        </mxCell>
        <mxCell id="BchM0v5HkjgXGt6HoBju-48" value="" style="endArrow=none;html=1;rounded=0;exitX=0.5;exitY=0;exitDx=0;exitDy=0;entryX=0.5;entryY=1;entryDx=0;entryDy=0;" parent="1" source="_7YUsY37ZqRuh6ZpaFpD-68" target="BchM0v5HkjgXGt6HoBju-45" edge="1">
          <mxGeometry relative="1" as="geometry">
            <mxPoint x="90" y="110" as="sourcePoint" />
            <mxPoint x="290" y="150" as="targetPoint" />
          </mxGeometry>
        </mxCell>
        <mxCell id="BchM0v5HkjgXGt6HoBju-49" value="Name" style="ellipse;whiteSpace=wrap;html=1;align=center;" parent="1" vertex="1">
          <mxGeometry x="-740" y="-220" width="100" height="40" as="geometry" />
        </mxCell>
        <mxCell id="BchM0v5HkjgXGt6HoBju-50" value="First_Name" style="ellipse;whiteSpace=wrap;html=1;" parent="1" vertex="1">
          <mxGeometry x="-890" y="-260" width="100" height="40" as="geometry" />
        </mxCell>
        <mxCell id="BchM0v5HkjgXGt6HoBju-51" value="Last_Name" style="ellipse;whiteSpace=wrap;html=1;" parent="1" vertex="1">
          <mxGeometry x="-820" y="-310" width="100" height="40" as="geometry" />
        </mxCell>
        <mxCell id="BchM0v5HkjgXGt6HoBju-52" value="" style="endArrow=none;html=1;rounded=0;exitX=0.5;exitY=1;exitDx=0;exitDy=0;entryX=0.5;entryY=0;entryDx=0;entryDy=0;" parent="1" source="BchM0v5HkjgXGt6HoBju-51" target="BchM0v5HkjgXGt6HoBju-49" edge="1">
          <mxGeometry relative="1" as="geometry">
            <mxPoint x="-680" y="-210" as="sourcePoint" />
            <mxPoint x="-690" y="-230" as="targetPoint" />
          </mxGeometry>
        </mxCell>
        <mxCell id="BchM0v5HkjgXGt6HoBju-53" value="" style="endArrow=none;html=1;rounded=0;exitX=0.5;exitY=0;exitDx=0;exitDy=0;entryX=0.5;entryY=1;entryDx=0;entryDy=0;" parent="1" source="BchM0v5HkjgXGt6HoBju-49" target="BchM0v5HkjgXGt6HoBju-50" edge="1">
          <mxGeometry relative="1" as="geometry">
            <mxPoint x="-720" y="-250" as="sourcePoint" />
            <mxPoint x="-520" y="-210" as="targetPoint" />
          </mxGeometry>
        </mxCell>
        <mxCell id="Y5xDJYC6LvKC5Z9svkRs-1" value="Modell" style="ellipse;whiteSpace=wrap;html=1;align=center;" vertex="1" parent="1">
          <mxGeometry x="140" y="-300" width="100" height="40" as="geometry" />
        </mxCell>
        <mxCell id="Y5xDJYC6LvKC5Z9svkRs-3" value="Arrival_date" style="ellipse;whiteSpace=wrap;html=1;" vertex="1" parent="1">
          <mxGeometry x="-710" y="-20" width="100" height="40" as="geometry" />
        </mxCell>
        <mxCell id="Y5xDJYC6LvKC5Z9svkRs-4" value="Departure_date" style="ellipse;whiteSpace=wrap;html=1;" vertex="1" parent="1">
          <mxGeometry x="-590" y="-20" width="100" height="40" as="geometry" />
        </mxCell>
      </root>
    </mxGraphModel>
  </diagram>
</mxfile>
